<svg width="0" height="0" class="hidden">
    <symbol xmlns="http://www.w3.org/2000/svg" viewBox="0 0 221.053 221.053" id="home">
        <path d="M218.278 103.775L118.384 7.497c-2.098-2.022-4.889-3.136-7.856-3.136-2.969 0-5.76 1.113-7.857 3.136L2.776 103.775c-3.346 3.224-2.955 5.996-2.425 7.312.531 1.315 2.115 3.605 6.761 3.605H18.36v85.57c0 8.906 7.676 16.43 16.368 16.43H85.36v-58h49v58h51.965c8.72 0 16.035-7.678 16.035-16.43v-85.57h11.581c4.646 0 6.229-2.29 6.761-3.605.53-1.316.922-4.087-2.424-7.312z" fill="currentColor"></path>
    </symbol>
    <symbol xmlns="http://www.w3.org/2000/svg" viewBox="0 0 510 510" id="shopping-cart">
        <path d="M153 408c-28.05 0-51 22.95-51 51s22.95 51 51 51 51-22.95 51-51-22.95-51-51-51zM0 0v51h51l91.8 193.8-35.7 61.2c-2.55 7.65-5.1 17.85-5.1 25.5 0 28.05 22.95 51 51 51h306v-51H163.2c-2.55 0-5.1-2.55-5.1-5.1v-2.551l22.95-43.35h188.7c20.4 0 35.7-10.2 43.35-25.5L504.9 89.25c5.1-5.1 5.1-7.65 5.1-12.75 0-15.3-10.2-25.5-25.5-25.5H107.1L84.15 0H0zm408 408c-28.05 0-51 22.95-51 51s22.95 51 51 51 51-22.95 51-51-22.95-51-51-51z" fill="currentColor"></path>
    </symbol>
    <symbol xmlns="http://www.w3.org/2000/svg" viewBox="0 0 561 561" id="add">
        <path d="M51 102H0v408c0 28.05 22.95 51 51 51h408v-51H51V102zM510 0H153c-28.05 0-51 22.95-51 51v357c0 28.05 22.95 51 51 51h357c28.05 0 51-22.95 51-51V51c0-28.05-22.95-51-51-51zm-51 255H357v102h-51V255H204v-51h102V102h51v102h102v51z" fill="currentColor"></path>
    </symbol>
    <symbol xmlns="http://www.w3.org/2000/svg" viewBox="0 0 905.119 905.119" id="bags">
        <path d="M286.364 295.622c45.759 3.359 83.48 35.367 95.401 78.183.768 2.76 3.248 4.69 6.113 4.69h82.465a8.763 8.763 0 0 1 8.727 7.98l36.914 412.411a8.762 8.762 0 0 0 8.728 7.98h320.297c5.146 0 9.186-4.416 8.727-9.543l-60.46-675.62a8.76 8.76 0 0 0-8.727-7.981H662.472a4.874 4.874 0 0 1-4.854-4.492C652.689 48.103 601.657 0 539.265 0c-62.393 0-113.417 48.103-118.352 109.232a4.874 4.874 0 0 1-4.854 4.491H304.332a8.764 8.764 0 0 0-8.728 7.98l-14.97 167.159c-.309 3.458 2.268 6.506 5.73 6.76zm252.91-275.263c50.83 0 92.679 38.721 97.859 88.207.288 2.751-1.841 5.158-4.607 5.158H446.021c-2.766 0-4.895-2.407-4.606-5.158 5.18-49.486 47.029-88.207 97.859-88.207z" fill="currentColor"></path>
        <path d="M63.479 905.119H490.92c7.127 0 12.718-6.113 12.083-13.211l-43.231-483.012a12.131 12.131 0 0 0-12.083-11.05h-81.631c-3.188 0-5.884-2.394-6.223-5.563-4.677-43.643-41.517-77.664-86.414-77.664-44.89 0-81.737 34.013-86.415 77.664-.34 3.17-3.035 5.563-6.223 5.563h-74.072a12.131 12.131 0 0 0-12.083 11.05L51.397 891.908c-.636 7.098 4.956 13.211 12.082 13.211zm144.237-514.291c5.174-31.625 32.616-55.85 65.693-55.85 33.078 0 60.52 24.225 65.701 55.849.603 3.673-2.2 7.021-5.921 7.021H213.637c-3.72-.002-6.521-3.348-5.921-7.02z" fill="currentColor"></path>
    </symbol>
    <symbol viewBox="0 0 511.096 511.096" xmlns="http://www.w3.org/2000/svg" id="contact">
        <path d="M74.414 480.548H38.2l25.607-25.607c13.807-13.807 22.429-31.765 24.747-51.246C29.427 364.893 0 308.681 0 249.751 0 141.032 99.923 30.548 256.414 30.548c165.785 0 254.682 101.666 254.682 209.678 0 108.724-89.836 210.322-254.682 210.322-28.877 0-59.01-3.855-85.913-10.928-25.467 26.121-59.973 40.928-96.087 40.928z" fill="currentColor"></path>
    </symbol>
    <symbol xmlns="http://www.w3.org/2000/svg" viewBox="0 0 28.931 28.932" id="search">
        <path d="M28.344 25.518l-6.114-6.115a12.177 12.177 0 0 0 2.303-7.137c0-3.275-1.275-6.355-3.594-8.672A12.183 12.183 0 0 0 12.266 0a12.176 12.176 0 0 0-8.673 3.594 12.183 12.183 0 0 0-3.592 8.672c0 3.276 1.275 6.356 3.592 8.674a12.187 12.187 0 0 0 8.673 3.594c2.599 0 5.067-.813 7.136-2.303l6.114 6.115c.392.391.902.586 1.414.586a2 2 0 0 0 1.414-3.414zM6.422 18.111c-1.562-1.562-2.421-3.639-2.421-5.846s.859-4.282 2.421-5.844c1.561-1.562 3.636-2.422 5.844-2.422s4.284.86 5.845 2.422c1.562 1.562 2.422 3.638 2.422 5.845s-.859 4.283-2.422 5.846c-1.562 1.562-3.636 2.42-5.845 2.42s-4.285-.86-5.844-2.421z" fill="currentColor"></path>
    </symbol>
    <symbol xmlns="http://www.w3.org/2000/svg" viewBox="0 0 43.028 43.028" id="user">
        <path d="M39.561 33.971l-.145.174c-4.774 5.728-11.133 8.884-17.902 8.884-6.77 0-13.128-3.155-17.903-8.884l-.144-.174.034-.223c.922-6.014 4.064-10.845 8.847-13.606l.34-.196.271.284c2.259 2.37 5.297 3.674 8.554 3.674s6.295-1.305 8.554-3.674l.271-.284.34.196c4.783 2.761 7.925 7.592 8.848 13.606l.035.223zM21.514 21.489c5.924 0 10.744-4.82 10.744-10.744C32.258 4.821 27.438 0 21.514 0S10.77 4.821 10.77 10.744s4.82 10.745 10.744 10.745z" fill="currentColor"></path>
    </symbol>
</svg>