<svg width="0" height="0" class="hidden">
    <symbol xmlns="http://www.w3.org/2000/svg" viewBox="0 0 221.053 221.053" id="home">
        <path fill="currentColor" d="M218.278 103.775L118.384 7.497c-2.098-2.022-4.889-3.136-7.856-3.136-2.969 0-5.76 1.113-7.857 3.136L2.776 103.775c-3.346 3.224-2.955 5.996-2.425 7.312.531 1.315 2.115 3.605 6.761 3.605H18.36v85.57c0 8.906 7.676 16.43 16.368 16.43H85.36v-58h49v58h51.965c8.72 0 16.035-7.678 16.035-16.43v-85.57h11.581c4.646 0 6.229-2.29 6.761-3.605.53-1.316.922-4.087-2.424-7.312z"></path>
    </symbol>
    <symbol xmlns="http://www.w3.org/2000/svg" viewBox="0 0 510 510" id="shopping-cart">
        <path fill="currentColor" d="M153 408c-28.05 0-51 22.95-51 51s22.95 51 51 51 51-22.95 51-51-22.95-51-51-51zM0 0v51h51l91.8 193.8-35.7 61.2c-2.55 7.65-5.1 17.85-5.1 25.5 0 28.05 22.95 51 51 51h306v-51H163.2c-2.55 0-5.1-2.55-5.1-5.1v-2.551l22.95-43.35h188.7c20.4 0 35.7-10.2 43.35-25.5L504.9 89.25c5.1-5.1 5.1-7.65 5.1-12.75 0-15.3-10.2-25.5-25.5-25.5H107.1L84.15 0H0zm408 408c-28.05 0-51 22.95-51 51s22.95 51 51 51 51-22.95 51-51-22.95-51-51-51z"></path>
    </symbol>
    <symbol xmlns="http://www.w3.org/2000/svg" viewBox="0 0 561 561" id="add">
        <path fill="currentColor" d="M51 102H0v408c0 28.05 22.95 51 51 51h408v-51H51V102zM510 0H153c-28.05 0-51 22.95-51 51v357c0 28.05 22.95 51 51 51h357c28.05 0 51-22.95 51-51V51c0-28.05-22.95-51-51-51zm-51 255H357v102h-51V255H204v-51h102V102h51v102h102v51z"></path>
    </symbol>
    <symbol xmlns="http://www.w3.org/2000/svg" viewBox="0 0 905.119 905.119" id="bags">
        <path fill="currentColor" d="M286.364 295.622c45.759 3.359 83.48 35.367 95.401 78.183.768 2.76 3.248 4.69 6.113 4.69h82.465a8.763 8.763 0 0 1 8.727 7.98l36.914 412.411a8.762 8.762 0 0 0 8.728 7.98h320.297c5.146 0 9.186-4.416 8.727-9.543l-60.46-675.62a8.76 8.76 0 0 0-8.727-7.981H662.472a4.874 4.874 0 0 1-4.854-4.492C652.689 48.103 601.657 0 539.265 0c-62.393 0-113.417 48.103-118.352 109.232a4.874 4.874 0 0 1-4.854 4.491H304.332a8.764 8.764 0 0 0-8.728 7.98l-14.97 167.159c-.309 3.458 2.268 6.506 5.73 6.76zm252.91-275.263c50.83 0 92.679 38.721 97.859 88.207.288 2.751-1.841 5.158-4.607 5.158H446.021c-2.766 0-4.895-2.407-4.606-5.158 5.18-49.486 47.029-88.207 97.859-88.207z"></path>
        <path fill="currentColor" d="M63.479 905.119H490.92c7.127 0 12.718-6.113 12.083-13.211l-43.231-483.012a12.131 12.131 0 0 0-12.083-11.05h-81.631c-3.188 0-5.884-2.394-6.223-5.563-4.677-43.643-41.517-77.664-86.414-77.664-44.89 0-81.737 34.013-86.415 77.664-.34 3.17-3.035 5.563-6.223 5.563h-74.072a12.131 12.131 0 0 0-12.083 11.05L51.397 891.908c-.636 7.098 4.956 13.211 12.082 13.211zm144.237-514.291c5.174-31.625 32.616-55.85 65.693-55.85 33.078 0 60.52 24.225 65.701 55.849.603 3.673-2.2 7.021-5.921 7.021H213.637c-3.72-.002-6.521-3.348-5.921-7.02z"></path>
    </symbol>
    <symbol viewBox="0 0 511.096 511.096" xmlns="http://www.w3.org/2000/svg" id="contact">
        <path fill="currentColor" d="M74.414 480.548H38.2l25.607-25.607c13.807-13.807 22.429-31.765 24.747-51.246C29.427 364.893 0 308.681 0 249.751 0 141.032 99.923 30.548 256.414 30.548c165.785 0 254.682 101.666 254.682 209.678 0 108.724-89.836 210.322-254.682 210.322-28.877 0-59.01-3.855-85.913-10.928-25.467 26.121-59.973 40.928-96.087 40.928z"></path>
    </symbol>
    <symbol xmlns="http://www.w3.org/2000/svg" viewBox="0 0 28.931 28.932" id="search">
        <path fill="currentColor" d="M28.344 25.518l-6.114-6.115a12.177 12.177 0 0 0 2.303-7.137c0-3.275-1.275-6.355-3.594-8.672A12.183 12.183 0 0 0 12.266 0a12.176 12.176 0 0 0-8.673 3.594 12.183 12.183 0 0 0-3.592 8.672c0 3.276 1.275 6.356 3.592 8.674a12.187 12.187 0 0 0 8.673 3.594c2.599 0 5.067-.813 7.136-2.303l6.114 6.115c.392.391.902.586 1.414.586a2 2 0 0 0 1.414-3.414zM6.422 18.111c-1.562-1.562-2.421-3.639-2.421-5.846s.859-4.282 2.421-5.844c1.561-1.562 3.636-2.422 5.844-2.422s4.284.86 5.845 2.422c1.562 1.562 2.422 3.638 2.422 5.845s-.859 4.283-2.422 5.846c-1.562 1.562-3.636 2.42-5.845 2.42s-4.285-.86-5.844-2.421z"></path>
    </symbol>
    <symbol xmlns="http://www.w3.org/2000/svg" viewBox="0 0 43.028 43.028" id="user">
        <path fill="currentColor" d="M39.561 33.971l-.145.174c-4.774 5.728-11.133 8.884-17.902 8.884-6.77 0-13.128-3.155-17.903-8.884l-.144-.174.034-.223c.922-6.014 4.064-10.845 8.847-13.606l.34-.196.271.284c2.259 2.37 5.297 3.674 8.554 3.674s6.295-1.305 8.554-3.674l.271-.284.34.196c4.783 2.761 7.925 7.592 8.848 13.606l.035.223zM21.514 21.489c5.924 0 10.744-4.82 10.744-10.744C32.258 4.821 27.438 0 21.514 0S10.77 4.821 10.77 10.744s4.82 10.745 10.744 10.745z"></path>
    </symbol>
    <symbol xmlns="http://www.w3.org/2000/svg" viewBox="0 0 62.635 62.635" id="email">
        <path fill="currentColor" d="M55.228 8.237H7.407C3.323 8.237 0 11.56 0 15.644v31.347c0 4.084 3.323 7.407 7.407 7.407h47.821c4.084 0 7.407-3.323 7.407-7.407V15.644c0-4.084-3.323-7.407-7.407-7.407zm5.407 38.754a5.413 5.413 0 0 1-5.407 5.407H7.407A5.414 5.414 0 0 1 2 46.991V15.644a5.413 5.413 0 0 1 5.407-5.407h47.821a5.413 5.413 0 0 1 5.407 5.407v31.347zm-4.139-31.678a.999.999 0 0 1 0 1.414L36.095 37.128c-1.317 1.317-3.047 1.976-4.778 1.976s-3.46-.659-4.778-1.976l-20.4-20.401a.999.999 0 1 1 1.414-1.414l20.401 20.401a4.764 4.764 0 0 0 6.728 0l20.401-20.401a.998.998 0 0 1 1.413 0z"></path>
    </symbol>
    <symbol xmlns="http://www.w3.org/2000/svg" viewBox="0 0 511 511" id="password">
        <path fill="currentColor" d="M479.5 132h-448C14.131 132 0 146.131 0 163.5v96C0 276.869 14.131 291 31.5 291h280a7.5 7.5 0 0 0 0-15h-280c-9.098 0-16.5-7.402-16.5-16.5v-96c0-9.098 7.402-16.5 16.5-16.5h448c9.098 0 16.5 7.402 16.5 16.5v72a7.5 7.5 0 0 0 15 0v-72c0-17.369-14.131-31.5-31.5-31.5z"></path>
        <path fill="currentColor" d="M479 253.234V243.5c0-35.014-28.486-63.5-63.5-63.5S352 208.486 352 243.5v9.734c-9.29 3.138-16 11.93-16 22.266v80c0 12.958 10.542 23.5 23.5 23.5h112c12.958 0 23.5-10.542 23.5-23.5v-80c0-10.336-6.71-19.128-16-22.266zM415.5 195c26.743 0 48.5 21.757 48.5 48.5v8.5h-97v-8.5c0-26.743 21.757-48.5 48.5-48.5zM480 355.5c0 4.687-3.813 8.5-8.5 8.5h-112c-4.687 0-8.5-3.813-8.5-8.5v-80c0-4.687 3.813-8.5 8.5-8.5h112c4.687 0 8.5 3.813 8.5 8.5v80zM121.708 191.75a7.5 7.5 0 0 0-10.245-2.745L95 198.51V179.5a7.5 7.5 0 0 0-15 0v19.01l-16.463-9.505a7.5 7.5 0 0 0-7.5 12.99L72.5 211.5l-16.463 9.505a7.5 7.5 0 0 0 7.5 12.99L80 224.49v19.01a7.5 7.5 0 0 0 15 0v-19.01l16.463 9.505a7.497 7.497 0 0 0 10.245-2.745 7.5 7.5 0 0 0-2.745-10.245L102.5 211.5l16.463-9.505a7.5 7.5 0 0 0 2.745-10.245zm96 0a7.5 7.5 0 0 0-10.245-2.745L191 198.51V179.5a7.5 7.5 0 0 0-15 0v19.01l-16.463-9.505a7.5 7.5 0 0 0-7.5 12.99L168.5 211.5l-16.463 9.505a7.5 7.5 0 0 0 7.5 12.99L176 224.49v19.01a7.5 7.5 0 0 0 15 0v-19.01l16.463 9.505a7.497 7.497 0 0 0 10.245-2.745 7.5 7.5 0 0 0-2.745-10.245L198.5 211.5l16.463-9.505a7.5 7.5 0 0 0 2.745-10.245zm96 0a7.5 7.5 0 0 0-10.245-2.745L287 198.51V179.5a7.5 7.5 0 0 0-15 0v19.01l-16.463-9.505a7.5 7.5 0 0 0-7.5 12.99L264.5 211.5l-16.463 9.505a7.5 7.5 0 0 0 7.5 12.99L272 224.49v19.01a7.5 7.5 0 0 0 15 0v-19.01l16.463 9.505a7.497 7.497 0 0 0 10.245-2.745 7.5 7.5 0 0 0-2.745-10.245L294.5 211.5l16.463-9.505a7.5 7.5 0 0 0 2.745-10.245z"></path>
        <path fill="currentColor" d="M415.5 284c-12.958 0-23.5 10.542-23.5 23.5 0 10.336 6.71 19.128 16 22.266v9.734a7.5 7.5 0 0 0 15 0v-9.734c9.29-3.138 16-11.93 16-22.266 0-12.958-10.542-23.5-23.5-23.5zm0 32c-4.687 0-8.5-3.813-8.5-8.5s3.813-8.5 8.5-8.5 8.5 3.813 8.5 8.5-3.813 8.5-8.5 8.5z"></path>
  </symbol>
    <symbol xmlns="http://www.w3.org/2000/svg" viewBox="0 0 492.004 492.004" id="arrow_right">
        <path fill="currentColor" d="M484.14 226.886L306.46 49.202c-5.072-5.072-11.832-7.856-19.04-7.856-7.216 0-13.972 2.788-19.044 7.856l-16.132 16.136c-5.068 5.064-7.86 11.828-7.86 19.04 0 7.208 2.792 14.2 7.86 19.264L355.9 207.526H26.58C11.732 207.526 0 219.15 0 234.002v22.812c0 14.852 11.732 27.648 26.58 27.648h330.496L252.248 388.926c-5.068 5.072-7.86 11.652-7.86 18.864 0 7.204 2.792 13.88 7.86 18.948l16.132 16.084c5.072 5.072 11.828 7.836 19.044 7.836 7.208 0 13.968-2.8 19.04-7.872l177.68-177.68c5.084-5.088 7.88-11.88 7.86-19.1.016-7.244-2.776-14.04-7.864-19.12z"></path>
    </symbol>
    <symbol xmlns="http://www.w3.org/2000/svg" viewBox="0 0 520.349 520.349" id="door">
        <path fill="currentColor" d="M445.223 0H142.589c-6.683 0-12.105 5.423-12.105 12.105v180.979h16.65c-5.006-6.392-7.725-14.224-7.725-22.467-.006-9.764 3.8-18.943 10.708-25.845 1.421-1.421 2.973-2.687 4.583-3.845V24.211h278.417v8.697l-127.104 92.285v395.155l127.796-92.787c1.626 4.77 6.095 8.228 11.414 8.228 6.685 0 12.105-5.426 12.105-12.105V12.105C457.328 5.417 451.907 0 445.223 0zm-91.192 331.973c-5.71 0-10.468-7.046-11.691-16.485h-13.63v-10.592h13.819c1.448-8.86 6.017-15.38 11.49-15.38 6.638 0 12.011 9.498 12.011 21.231.012 11.721-5.367 21.226-11.999 21.226zm-203.909-17.502a37.047 37.047 0 004.572 3.824v105.389c0 6.68-5.426 12.105-12.105 12.105-6.683 0-12.105-5.426-12.105-12.105V266.139h16.65c-11.186 14.327-10.199 35.132 2.988 48.332zm86.584-96.086a12.312 12.312 0 010 17.425l-58.995 59.001a12.348 12.348 0 01-8.709 3.611 12.304 12.304 0 01-8.71-3.611c-4.811-4.817-4.805-12.613 0-17.419l37.974-37.977H75.336c-6.803 0-12.315-5.512-12.315-12.315s5.506-12.318 12.321-12.318h122.917l-37.968-37.974c-4.805-4.805-4.811-12.608 0-17.413 4.812-4.812 12.614-4.812 17.425 0l58.99 58.99z"/>
    </symbol>
</svg>